<mxfile host="app.diagrams.net" modified="2023-11-03T04:16:06.321Z" agent="Mozilla/5.0 (Windows NT 10.0; Win64; x64) AppleWebKit/537.36 (KHTML, like Gecko) Chrome/119.0.0.0 Safari/537.36" etag="A2VGgfdlrU-5njBQ7_fg" version="22.0.8" type="device">
  <diagram name="페이지-1" id="DnTFwPDd8gwN8_5_6HRJ">
    <mxGraphModel dx="1434" dy="764" grid="1" gridSize="10" guides="1" tooltips="1" connect="1" arrows="1" fold="1" page="1" pageScale="1" pageWidth="827" pageHeight="1169" math="0" shadow="0">
      <root>
        <mxCell id="0" />
        <mxCell id="1" parent="0" />
        <mxCell id="_RKtf8iU_6AYDTrKtQMn-7" style="edgeStyle=orthogonalEdgeStyle;rounded=0;orthogonalLoop=1;jettySize=auto;html=1;" edge="1" parent="1" source="_RKtf8iU_6AYDTrKtQMn-1" target="_RKtf8iU_6AYDTrKtQMn-3">
          <mxGeometry relative="1" as="geometry" />
        </mxCell>
        <mxCell id="_RKtf8iU_6AYDTrKtQMn-1" value="날짜 선택" style="rounded=0;whiteSpace=wrap;html=1;" vertex="1" parent="1">
          <mxGeometry x="80" y="40" width="120" height="40" as="geometry" />
        </mxCell>
        <mxCell id="_RKtf8iU_6AYDTrKtQMn-8" style="edgeStyle=orthogonalEdgeStyle;rounded=0;orthogonalLoop=1;jettySize=auto;html=1;entryX=0.5;entryY=0;entryDx=0;entryDy=0;" edge="1" parent="1" source="_RKtf8iU_6AYDTrKtQMn-3" target="_RKtf8iU_6AYDTrKtQMn-5">
          <mxGeometry relative="1" as="geometry" />
        </mxCell>
        <mxCell id="_RKtf8iU_6AYDTrKtQMn-3" value="예약 가능시간 출력" style="rounded=0;whiteSpace=wrap;html=1;" vertex="1" parent="1">
          <mxGeometry x="80" y="120" width="120" height="40" as="geometry" />
        </mxCell>
        <mxCell id="_RKtf8iU_6AYDTrKtQMn-12" style="edgeStyle=orthogonalEdgeStyle;rounded=0;orthogonalLoop=1;jettySize=auto;html=1;entryX=0.5;entryY=0;entryDx=0;entryDy=0;" edge="1" parent="1" source="_RKtf8iU_6AYDTrKtQMn-5" target="_RKtf8iU_6AYDTrKtQMn-9">
          <mxGeometry relative="1" as="geometry" />
        </mxCell>
        <mxCell id="_RKtf8iU_6AYDTrKtQMn-5" value="시간 선택" style="rounded=0;whiteSpace=wrap;html=1;" vertex="1" parent="1">
          <mxGeometry x="80" y="200" width="120" height="40" as="geometry" />
        </mxCell>
        <mxCell id="_RKtf8iU_6AYDTrKtQMn-13" style="edgeStyle=orthogonalEdgeStyle;rounded=0;orthogonalLoop=1;jettySize=auto;html=1;entryX=0.5;entryY=0;entryDx=0;entryDy=0;" edge="1" parent="1" source="_RKtf8iU_6AYDTrKtQMn-9" target="_RKtf8iU_6AYDTrKtQMn-10">
          <mxGeometry relative="1" as="geometry" />
        </mxCell>
        <mxCell id="_RKtf8iU_6AYDTrKtQMn-9" value="이용 시간 입력" style="rounded=0;whiteSpace=wrap;html=1;" vertex="1" parent="1">
          <mxGeometry x="80" y="280" width="120" height="40" as="geometry" />
        </mxCell>
        <mxCell id="_RKtf8iU_6AYDTrKtQMn-14" style="edgeStyle=orthogonalEdgeStyle;rounded=0;orthogonalLoop=1;jettySize=auto;html=1;entryX=0.5;entryY=0;entryDx=0;entryDy=0;" edge="1" parent="1" source="_RKtf8iU_6AYDTrKtQMn-10" target="_RKtf8iU_6AYDTrKtQMn-11">
          <mxGeometry relative="1" as="geometry" />
        </mxCell>
        <mxCell id="_RKtf8iU_6AYDTrKtQMn-10" value="예약자명 입력" style="rounded=0;whiteSpace=wrap;html=1;" vertex="1" parent="1">
          <mxGeometry x="80" y="360" width="120" height="40" as="geometry" />
        </mxCell>
        <mxCell id="_RKtf8iU_6AYDTrKtQMn-18" style="edgeStyle=orthogonalEdgeStyle;rounded=0;orthogonalLoop=1;jettySize=auto;html=1;entryX=0.5;entryY=0;entryDx=0;entryDy=0;" edge="1" parent="1" source="_RKtf8iU_6AYDTrKtQMn-11" target="_RKtf8iU_6AYDTrKtQMn-17">
          <mxGeometry relative="1" as="geometry" />
        </mxCell>
        <mxCell id="_RKtf8iU_6AYDTrKtQMn-11" value="제출" style="rounded=0;whiteSpace=wrap;html=1;" vertex="1" parent="1">
          <mxGeometry x="80" y="440" width="120" height="40" as="geometry" />
        </mxCell>
        <mxCell id="_RKtf8iU_6AYDTrKtQMn-15" value="예약성공" style="rounded=0;whiteSpace=wrap;html=1;" vertex="1" parent="1">
          <mxGeometry x="80" y="640" width="120" height="40" as="geometry" />
        </mxCell>
        <mxCell id="_RKtf8iU_6AYDTrKtQMn-19" style="edgeStyle=orthogonalEdgeStyle;rounded=0;orthogonalLoop=1;jettySize=auto;html=1;entryX=0.5;entryY=0;entryDx=0;entryDy=0;" edge="1" parent="1" source="_RKtf8iU_6AYDTrKtQMn-17" target="_RKtf8iU_6AYDTrKtQMn-15">
          <mxGeometry relative="1" as="geometry" />
        </mxCell>
        <mxCell id="_RKtf8iU_6AYDTrKtQMn-22" style="edgeStyle=orthogonalEdgeStyle;rounded=0;orthogonalLoop=1;jettySize=auto;html=1;entryX=0.5;entryY=0;entryDx=0;entryDy=0;" edge="1" parent="1" source="_RKtf8iU_6AYDTrKtQMn-17" target="_RKtf8iU_6AYDTrKtQMn-21">
          <mxGeometry relative="1" as="geometry" />
        </mxCell>
        <mxCell id="_RKtf8iU_6AYDTrKtQMn-17" value="이미 예약되어있는&lt;br&gt;&amp;nbsp;시간인지 확인" style="rhombus;whiteSpace=wrap;html=1;" vertex="1" parent="1">
          <mxGeometry x="65" y="520" width="150" height="80" as="geometry" />
        </mxCell>
        <mxCell id="_RKtf8iU_6AYDTrKtQMn-20" value="Yes" style="text;html=1;strokeColor=none;fillColor=none;align=center;verticalAlign=middle;whiteSpace=wrap;rounded=0;" vertex="1" parent="1">
          <mxGeometry x="65" y="600" width="60" height="30" as="geometry" />
        </mxCell>
        <mxCell id="_RKtf8iU_6AYDTrKtQMn-21" value="오류메세지 출력" style="rounded=0;whiteSpace=wrap;html=1;" vertex="1" parent="1">
          <mxGeometry x="280" y="640" width="120" height="40" as="geometry" />
        </mxCell>
        <mxCell id="_RKtf8iU_6AYDTrKtQMn-23" value="No" style="text;html=1;strokeColor=none;fillColor=none;align=center;verticalAlign=middle;whiteSpace=wrap;rounded=0;" vertex="1" parent="1">
          <mxGeometry x="220" y="520" width="60" height="30" as="geometry" />
        </mxCell>
      </root>
    </mxGraphModel>
  </diagram>
</mxfile>
